<svg width="30" height="33" viewBox="0 0 30 33" fill="none" xmlns="http://www.w3.org/2000/svg">
<path d="M1.65105 18.3379H1.5V18.4896C1.50632 22.0736 2.92822 25.5085 5.45336 28.0398C7.97849 30.571 11.4003 31.9916 14.9672 31.9895H15.1103V31.8457C15.1093 30.0708 14.7603 28.3134 14.0833 26.674C13.4064 25.0346 12.4147 23.5452 11.1649 22.2909C9.91507 21.0366 8.43163 20.0419 6.79924 19.3636C5.16686 18.6854 3.4175 18.3368 1.65105 18.3379ZM28.6252 18.3299C25.0604 18.3341 21.6431 19.76 19.124 22.2942C16.6048 24.8285 15.1898 28.2639 15.1898 31.8457V31.9895H15.3329C18.899 31.9853 22.3175 30.5583 24.8369 28.0223C27.3563 25.4864 28.7704 22.0489 28.7683 18.4657V18.3299H28.6252ZM18.7991 18.0103C18.807 17.88 18.807 17.7493 18.7991 17.6189C19.0394 17.8275 19.3068 18.0021 19.5941 18.1382C20.0343 18.3676 20.516 18.5057 21.0104 18.5443C21.5048 18.5828 22.0019 18.521 22.4721 18.3625C22.9423 18.204 23.3759 17.9521 23.7472 17.6217C24.1185 17.2913 24.4198 16.8893 24.6332 16.4395C24.8466 15.9897 24.9678 15.5013 24.9895 15.0035C25.0112 14.5056 24.933 14.0085 24.7595 13.5417C24.586 13.0748 24.3209 12.6479 23.9798 12.2861C23.6387 11.9244 23.2286 11.6353 22.774 11.4362L22.4242 11.2764L22.774 11.1166C22.9369 11.0231 23.0936 10.919 23.2431 10.8051C24.019 10.213 24.529 9.33536 24.661 8.36537C24.7929 7.39538 24.536 6.41245 23.9467 5.63281C23.3573 4.85318 22.4839 4.3407 21.5186 4.20812C20.5532 4.07554 19.575 4.33372 18.7991 4.92587C18.807 4.79552 18.807 4.6648 18.7991 4.53445C18.755 3.58224 18.3476 2.68368 17.6614 2.02547C16.9752 1.36726 16.063 1 15.1143 1C14.1656 1 13.2534 1.36726 12.5672 2.02547C11.881 2.68368 11.4735 3.58224 11.4295 4.53445C11.4215 4.6648 11.4215 4.79552 11.4295 4.92587C11.1871 4.72005 10.9201 4.54561 10.6345 4.40664C9.74893 3.98293 8.73213 3.93004 7.80777 4.25961C6.88341 4.58918 6.12721 5.27422 5.70552 6.16402C5.28383 7.05382 5.23119 8.0755 5.55919 9.00429C5.88719 9.93309 6.56895 10.6929 7.4545 11.1166L7.8043 11.2764L7.4545 11.4362C7.29172 11.5269 7.13504 11.6283 6.98546 11.7397C6.20955 12.3318 5.69952 13.2094 5.56757 14.1794C5.43563 15.1494 5.69258 16.1324 6.28189 16.912C6.8712 17.6916 7.74461 18.2041 8.70997 18.3367C9.67533 18.4693 10.6536 18.2111 11.4295 17.6189C11.4215 17.7493 11.4215 17.88 11.4295 18.0103C11.4735 18.9626 11.881 19.8611 12.5672 20.5193C13.2534 21.1775 14.1656 21.5448 15.1143 21.5448C16.063 21.5448 16.9752 21.1775 17.6614 20.5193C18.3476 19.8611 18.755 18.9626 18.7991 18.0103ZM15.1103 14.9669C14.3807 14.9669 13.6675 14.7495 13.0609 14.3422C12.4543 13.935 11.9815 13.3561 11.7023 12.6788C11.4231 12.0016 11.3501 11.2563 11.4924 10.5373C11.6347 9.81834 11.9861 9.15791 12.5019 8.63955C13.0178 8.12119 13.6751 7.76818 14.3906 7.62516C15.1062 7.48215 15.8479 7.55555 16.5219 7.83608C17.196 8.11662 17.7721 8.59169 18.1774 9.20121C18.5827 9.81074 18.7991 10.5273 18.7991 11.2604C18.8001 11.7475 18.7054 12.2299 18.5204 12.6801C18.3354 13.1302 18.0637 13.5392 17.721 13.8836C17.3782 14.228 16.9712 14.501 16.5232 14.6869C16.0752 14.8728 15.595 14.9679 15.1103 14.9669Z" stroke="#285E67" stroke-width="1.5" stroke-linecap="round" stroke-linejoin="round"/>
</svg>
