<svg width="26" height="29" viewBox="0 0 26 29" fill="none" xmlns="http://www.w3.org/2000/svg">
<path d="M25.7815 27.5799L24.2918 25.918C24.3925 23.7081 24.5588 12.8778 18.6657 6.30306C13.5663 0.614161 5.48153 0 2.24217 0C1.31494 0 0.757702 0.0490993 0.734577 0.0511798C0.3698 0.0840516 0.079992 0.406944 0.0508994 0.813889C0.0136011 1.3336 -0.792041 13.626 5.65496 20.8178C10.7544 26.5067 18.8399 27.1205 22.0793 27.1205C22.5858 27.1205 22.9766 27.1059 23.2359 27.0926L24.7271 28.7562C24.8725 28.9189 25.0635 29 25.2545 29C25.4454 29 25.6364 28.9189 25.7819 28.7562C26.0728 28.4312 26.0728 27.9048 25.7815 27.5799ZM6.70938 19.6411C1.60847 13.9505 1.44548 4.37819 1.50889 1.67605C1.71254 1.66939 1.95908 1.66481 2.24217 1.66481C5.29578 1.66481 12.9057 2.23154 17.6109 7.48021C22.133 12.525 22.7737 20.6181 22.817 24.2723L17.3129 18.1323L18.0059 11.506C18.0537 11.0495 17.7605 10.6363 17.3517 10.5831C16.9392 10.5306 16.5722 10.8568 16.5244 11.3129L15.9683 16.6319L12.2001 12.4285L11.6175 7.50933C11.5634 7.05371 11.1867 6.73165 10.7801 6.79323C10.3717 6.85356 10.0841 7.27174 10.1382 7.72737L10.4657 10.494L6.0962 5.619C5.80528 5.29402 5.33233 5.29402 5.04141 5.619C4.75011 5.94397 4.75011 6.47075 5.04141 6.79572L9.41053 11.6699L6.93131 11.3046C6.52289 11.2447 6.14767 11.565 6.09396 12.0207C6.03988 12.4763 6.32745 12.8945 6.73587 12.9548L11.1445 13.6048L14.9128 17.8082L10.1453 18.4286C9.73614 18.4819 9.44335 18.895 9.49109 19.3515C9.53547 19.7755 9.85773 20.0876 10.2311 20.0876C10.2598 20.0876 10.2889 20.0859 10.3184 20.0818L16.2577 19.3091L21.7667 25.4548C18.5337 25.4145 11.2616 24.7196 6.70938 19.6411Z" fill="#2A2A2A"/>
</svg>
