<svg width="54" height="42" viewBox="0 0 54 42" fill="none" xmlns="http://www.w3.org/2000/svg">
<path d="M53.4474 1.08967C53.4339 0.868359 53.3398 0.659673 53.1828 0.503105C53.0258 0.346536 52.8169 0.252949 52.5955 0.240056C41.2108 -0.439631 32.1052 2.98146 28.2355 9.36826C25.5984 13.7228 25.7048 18.8658 28.5165 23.9158C26.5323 26.0955 25.222 28.8033 24.7442 31.7119L19.4223 26.3899C21.3775 22.7649 21.4183 19.0651 19.5174 15.925C16.7035 11.2782 10.1105 8.79506 1.875 9.27764C1.65483 9.29154 1.44729 9.38527 1.29129 9.54127C1.13529 9.69726 1.04156 9.90481 1.02766 10.125C0.545078 18.356 3.0282 24.949 7.675 27.7629C9.16638 28.6784 10.8822 29.1631 12.6322 29.163C14.5639 29.1302 16.4569 28.6162 18.1399 27.6677L24.5312 34.0658V40.9375C24.5312 41.1778 24.6267 41.4083 24.7967 41.5783C24.9666 41.7482 25.1971 41.8437 25.4375 41.8437C25.6779 41.8437 25.9084 41.7482 26.0783 41.5783C26.2483 41.4083 26.3438 41.1778 26.3438 40.9375V34.2561C26.3352 30.9104 27.5698 27.6807 29.8079 25.1936C32.4111 26.6346 35.0347 27.3596 37.5654 27.3596C39.9494 27.36 42.287 26.7005 44.3192 25.4542C50.7037 21.5822 54.118 12.4767 53.4474 1.08967ZM8.61297 26.2109C4.70023 23.8456 2.55469 18.211 2.79937 11.0494C9.96102 10.8047 15.5956 12.9502 17.9609 16.8629C19.4291 19.2894 19.454 22.1577 18.0652 25.0396L11.5764 18.5463C11.404 18.3901 11.1782 18.3062 10.9456 18.3119C10.713 18.3176 10.4916 18.4126 10.3271 18.5771C10.1626 18.7416 10.0677 18.963 10.0619 19.1956C10.0562 19.4281 10.1401 19.654 10.2963 19.8264L16.7919 26.3219C13.9077 27.7108 11.0395 27.6858 8.61297 26.2109ZM43.379 23.9C39.7427 26.1022 35.4289 26.0727 31.1265 23.8433L44.2037 10.7639C44.3666 10.5927 44.4562 10.3646 44.4534 10.1283C44.4506 9.89198 44.3556 9.66611 44.1886 9.49885C44.0216 9.33158 43.7959 9.23616 43.5596 9.23293C43.3233 9.2297 43.0951 9.31891 42.9236 9.48154L29.8441 22.561C27.6148 18.2563 27.5785 13.9516 29.7875 10.3085C33.2109 4.64443 41.3603 1.57904 51.6802 2.00724C52.1107 12.3272 49.034 20.4766 43.379 23.9Z" fill="black"/>
</svg>
